<svg id="white" xmlns="http://www.w3.org/2000/svg" viewBox="0 0 1565.71482 384"><defs><style>.cls-1{fill:#fff;}</style></defs><path class="cls-1" d="M512.50919,128.001a127.697,127.697,0,0,0-46.436,8.495L388.39316,11.343A24,24,0,0,0,368.0012,0h-64a15.99942,15.99942,0,0,0-16,16V32a15.9995,15.9995,0,0,0,16,16h50.649l14.896,24H256.00223V56a15.99942,15.99942,0,0,0-16-16h-87.459c-13.441,0-24.777,10.999-24.536,24.437A23.998,23.998,0,0,0,152.00223,88h48.726l-29.41706,47.52a127.73907,127.73907,0,0,0-42.992-7.52c-70.225-.16992-127.907,57.012-128.317,127.236A128.019,128.019,0,0,0,251.96921,288h52.033a24.00012,24.00012,0,0,0,20.406-11.36694l85.962-138.863,14.938,24.06689a127.65667,127.65667,0,0,0-41.307,94.437c.14495,68.833,57.899,127.051,126.729,127.719a128.00043,128.00043,0,0,0,129.255-125.996C641.0712,187.05591,583.4592,128.277,512.50919,128.001ZM128.00223,336a80,80,0,1,1,17.099-158.141l-45.505,73.50891A24.01458,24.01458,0,0,0,120.00223,288h81.3A80.10321,80.10321,0,0,1,128.00223,336Zm35.084-96,23.664-38.228A79.84064,79.84064,0,0,1,206.39219,240Zm127.546,0h-35.624a127.74175,127.74175,0,0,0-42.383-80.026L237.37119,120h127.547Zm217.05707,95.886a79.93543,79.93543,0,0,1-56.29206-132.01807l44.433,71.58606a15.99976,15.99976,0,0,0,22.032,5.156l13.594-8.437a15.999,15.999,0,0,0,5.156-22.0321l-44.468-71.643A80.00351,80.00351,0,1,1,507.68925,335.886Z"/><path class="cls-1" d="M719.6406,122.34912c0-18.71924,12.41992-26.81885,23.39941-26.81885,12.59961,0,19.61915,6.11963,19.61915,19.439v59.75781h17.999V112.44971c0-21.23926-12.41943-32.75879-32.57861-32.75879a34.21731,34.21731,0,0,0-28.439,14.93945V46.57227h-17.999V174.72705h17.999Z"/><path class="cls-1" d="M841.8574,119.10938l-13.67969,1.43994c-25.91895,2.52-34.91846,13.85937-34.91846,28.79882,0,17.81934,13.13916,27.53907,33.11866,27.53907,13.49951,0,23.939-5.04,30.23876-14.75977,1.25977,9,6.4795,13.13965,17.999,13.13965a70.3621,70.3621,0,0,0,8.81982-.54V160.86768h-5.04c-3.59961,0-5.03955-1.79981-5.03955-4.67969V107.0498c0-16.19921-10.07959-27.35888-36.71826-27.35888-27.89892,0-38.33887,12.41943-39.41846,31.13867h17.81885c.90039-12.59961,7.02-16.73926,21.59961-16.73926,14.5791,0,19.0791,4.67969,19.0791,13.31934C855.71677,114.96924,850.85691,118.0293,841.8574,119.10938Zm13.85937,18.89892c0,17.45947-13.49951,24.83936-26.63916,24.83936-11.69922,0-17.27929-5.58008-17.27929-14.03955,0-8.27979,4.5-13.49952,19.43945-15.29932l12.95947-1.43994c5.03955-.54,8.81934-1.62012,11.51953-3.77979Z"/><path class="cls-1" d="M934.62839,174.72705l35.63868-92.876H951.18748L938.768,115.86963c-4.49951,13.31933-9.53955,27.89844-13.85937,41.398-4.13965-13.49951-9.17969-28.07862-13.6792-41.398L898.62986,81.85107H879.19041l35.459,92.876Z"/><path class="cls-1" d="M1014.43943,176.88721c22.31836,0,36.89844-12.59961,41.57812-30.59912h-18.17968c-3.23926,9.35986-10.9795,15.47949-23.03907,15.47949-14.93945,0-25.01855-8.63965-26.63867-27.53906h70.01758v-5.21973c0-27.89893-16.01953-49.31787-44.09863-49.31787-26.459,0-44.09815,19.43945-44.09815,48.59814C969.98093,158.16748,988.16013,176.88721,1014.43943,176.88721Zm-.36035-82.07715c15.11914,0,23.93945,10.7998,25.55859,25.19922H988.34031C990.68015,102.91016,1000.58005,94.81006,1014.07908,94.81006Z"/><rect class="cls-1" x="1111.63865" y="46.57227" width="19.25977" height="128.15479"/><path class="cls-1" d="M1205.77439,160.6875c6.66016,10.25977,17.09961,16.19971,30.959,16.19971,25.73926,0,42.47852-18.89942,42.47852-48.59815s-16.73926-48.59814-42.47852-48.59814c-13.31933,0-23.5791,5.57959-30.23828,15.11914V46.57227h-18V174.72705h17.2793Zm27.53906-65.51709c16.55957,0,27.17969,11.15918,27.17969,32.39844s-10.62012,33.83886-27.17969,33.83886c-16.55859,0-27.17871-11.87988-27.17871-33.11865C1206.13474,107.0498,1216.75486,95.17041,1233.31345,95.17041Z"/><path class="cls-1" d="M1332.36814,79.69092c-26.459,0-44.09863,19.43945-44.09863,48.59814,0,29.87842,18.17968,48.59815,44.458,48.59815,22.31934,0,36.89844-12.59961,41.57813-30.59912h-18.17871c-3.24024,9.35986-10.97949,15.47949-23.03906,15.47949-14.93946,0-25.01953-8.63965-26.63868-27.53906h70.01661v-5.21973C1376.4658,101.10986,1360.44626,79.69092,1332.36814,79.69092Zm-25.73926,40.31836c2.33985-17.09912,12.23926-25.19922,25.73926-25.19922,15.11914,0,23.93848,10.7998,25.55859,25.19922Z"/><path class="cls-1" d="M1429.26072,79.69092c-26.459,0-44.09863,19.43945-44.09863,48.59814,0,29.87842,18.17968,48.59815,44.458,48.59815,22.31934,0,36.89844-12.59961,41.57813-30.59912h-18.17871c-3.24024,9.35986-10.9795,15.47949-23.03907,15.47949-14.93945,0-25.01953-8.63965-26.63867-27.53906h70.0166v-5.21973C1473.35837,101.10986,1457.33884,79.69092,1429.26072,79.69092Zm-25.73926,40.31836c2.33984-17.09912,12.23926-25.19922,25.73926-25.19922,15.11914,0,23.93847,10.7998,25.55859,25.19922Z"/><path class="cls-1" d="M1533.13572,79.69092c-13.13965,0-23.03906,6.83984-29.15821,16.01953V81.85107h-17.27929v92.876h17.999V122.34912c0-18.71924,12.41895-26.81885,23.39844-26.81885,12.59961,0,19.61914,6.11963,19.61914,19.439v59.75781h18V112.44971C1565.71482,91.21045,1553.2949,79.69092,1533.13572,79.69092Z"/><path class="cls-1" d="M750.41941,278.57031,736.56,276.58984c-8.99951-1.43945-13.49951-3.77929-13.49951-9.35937,0-5.40039,4.14014-8.82031,14.21973-8.82031s16.73926,3.06054,17.09912,13.13964h26.09912c-.8999-18.17871-11.87988-31.85839-43.19824-31.85839-27.1792,0-41.7583,10.7998-41.7583,29.33886,0,16.55957,11.69922,25.37891,31.31885,28.43848l12.05908,1.98047c12.59961,1.97949,16.01953,4.67969,16.01953,10.25976,0,5.57911-4.31982,8.999-15.65918,8.999-11.69971,0-16.73975-3.41992-17.81934-13.499H694.082c1.61963,23.03907,16.19922,32.21875,44.63818,32.21875,27.89893,0,44.27783-10.7998,44.27783-30.05859C782.998,290.80957,772.37888,281.98926,750.41941,278.57031Z"/><path class="cls-1" d="M826.99021,214.3125H798.9116v27.53906H785.05222v20.51856H798.9116v46.43847c0,19.07911,9.71972,26.63868,32.93847,26.63868a106.18843,106.18843,0,0,0,12.95948-.71973V313.84863h-7.19971c-7.19971,0-10.61963-1.25976-10.61963-8.09961v-43.3789h17.81934V241.85156H826.99021Z"/><path class="cls-1" d="M897.6572,239.69141c-29.69873,0-48.77783,19.0791-48.77783,48.59765,0,29.51953,19.0791,48.59864,48.77783,48.59864,29.519,0,48.59815-19.07911,48.59815-48.59864C946.25535,258.77051,927.17625,239.69141,897.6572,239.69141Zm0,74.69726c-12.59912,0-20.33886-8.46-20.33886-26.09961,0-17.63867,7.73974-26.09863,20.33886-26.09863,12.41992,0,20.15918,8.46,20.15918,26.09863C917.81638,305.92871,910.07712,314.38867,897.6572,314.38867Z"/><rect class="cls-1" x="957.07517" y="206.57227" width="28.0791" height="128.15527"/><path class="cls-1" d="M1043.94041,239.69141c-28.97852,0-47.87793,19.25879-47.87793,48.59765,0,29.51953,19.43945,48.59864,48.23828,48.59864,22.31933,0,40.31836-11.51954,45.3584-31.13868h-26.63965c-3.23926,6.65918-9.35938,10.43946-18.71875,10.43946-10.9795,0-19.25977-6.29981-21.23926-19.61914h68.75684v-5.58008C1091.81834,259.6709,1072.91892,239.69141,1043.94041,239.69141ZM1023.24119,278.75c2.16015-12.96,10.08007-18.35937,20.33984-18.35937,11.33887,0,18.71875,6.83984,20.69824,18.35937Z"/><path class="cls-1" d="M1159.15818,239.69141c-13.499,0-23.03906,6.66015-29.1582,15.2998V241.85156H1102.6406v92.876h28.0791V282.88965c0-13.67969,8.999-19.25879,17.63867-19.25879,10.44043,0,14.93946,5.5791,14.93946,15.83887v55.25781h28.0791V273.88965C1191.37693,250.85059,1177.51755,239.69141,1159.15818,239.69141Z"/><rect class="cls-1" x="1222.2656" y="303.76855" width="31.67871" height="30.95898"/><path class="cls-1" d="M1240.80466,203.69287c-30.59863,0-47.1582,14.03955-46.97754,42.65869h28.43848c.17969-13.67968,4.67969-19.25976,17.63965-19.25976,10.97949,0,15.47851,5.21972,15.47851,13.5,0,7.73925-6.29882,12.05859-13.13867,16.55859-5.21972,3.41992-10.43945,7.2002-13.31933,12.41992-3.41992,5.93946-4.32032,9.71973-4.32032,22.499h26.999c0-6.12012.17969-9.17969,2.70019-12.41993,2.33985-3.41992,7.37891-7.01953,12.7793-10.97949,12.23926-8.63965,18.53906-18.71875,18.53906-31.13867C1285.623,215.752,1267.80369,203.69287,1240.80466,203.69287Z"/></svg>